<?xml version="1.0" encoding="UTF-8"?>
<svg id="Calque_1" data-name="Calque 1" xmlns="http://www.w3.org/2000/svg" viewBox="0 0 1000 308">
  <defs>
    <style>
      .cls-1 {
        fill: #fff;
      }
    </style>
  </defs>
  <path class="cls-1" d="M1000,308H0C0,205.33,0,102.67,0,0,333.33,0,666.67,0,1000,0c0,102.67,0,205.33,0,308ZM279.4,160.41c8.82-9.26,17.42-18.55,26.32-27.55,14.61-14.78,19.14-32.17,14.4-52.27-1-4.26-2.17-8.08-6.81-9.53-4.9-1.53-8.5,.5-11.94,3.96-24.24,24.31-48.58,48.51-72.9,72.73-1.12,1.12-2.33,2.16-4.26,3.93v-6.28c0-35.49-.08-70.99,.08-106.48,.03-6.44-2.24-10.95-7.48-14.75-7.22-5.23-15.24-8.06-23.79-9.78-8.6-1.73-13.95,2.6-13.95,11.48-.04,64.99-.03,129.97,0,194.96,0,8.22,3.64,11.91,11.84,12.04,7,.11,14,.07,20.99,.01,8.85-.07,12.28-3.56,12.31-12.53,.04-14.66,0-29.33,.02-43.99,0-1.39,.16-2.78,.28-4.84,15.67,14.93,30.77,29.31,45.95,43.77-2.69,2.51-5.11,4.79-7.57,7.03-9.72,8.87-15.67,19.81-17.37,32.84-3.01,23.07,11,44.46,40,39.07,28.64-5.33,48.2-25.42,53.84-54.03,1.76-8.92,.19-17.09-6.47-23.99-17.83-18.45-35.51-37.04-53.48-55.82Zm420.93-68.72V237.76h38.42c.13-2.9,.25-5.54,.39-8.83,17.11,17.69,47.86,14.5,62.31-6.06,14.69-20.89,14.71-57.13-.38-77.83-12.98-17.81-38.74-22.85-55.97-10.91-1.96,1.36-3.75,2.95-6.18,4.88,0-8.41,0-16.04,0-23.67s0-15.56,0-23.66h-38.58Zm-59.27,78.25c-5.37,.74-10.45,1.49-15.54,2.12-11.24,1.38-22.46,2.85-32.65,8.3-16.77,8.95-22.28,29.6-11.78,44.79,6.75,9.77,16.74,13.88,28.17,14.75,13.16,1,25.53-1.29,35.78-10.31,11.6,11.37,25.36,11.13,39.52,8.71,1.02-.18,2.55-1.77,2.58-2.74,.21-8.28,.12-16.57,.12-24.76-7.43-1.35-7.51-1.41-7.52-8.76-.02-11.66,.13-23.32-.04-34.97-.28-19.17-9.63-31.65-27.8-36.62-13.05-3.57-26.36-3.9-39.45-.26-16.08,4.48-27.65,14.17-32.86,30.51-.37,1.15-.32,2.44-.49,3.85,12.52,1.43,24.54,2.81,36.47,4.18,4.66-9.44,9.79-12.36,17.88-10.37,5.78,1.42,7.72,4.21,7.63,11.58Zm-240.79-42.04c-33.09-.03-55.43,22.41-55.72,55.95-.28,33.35,22.69,56.83,55.59,56.81,32.71-.01,55.45-23.15,55.48-56.43,.03-33.42-22.46-56.3-55.35-56.33Zm107.27,109.87V91.67h-38.32V237.78h38.32Zm57.01,.1V91.66h-38.16V237.88h38.16Z"/>
  <path d="M279.4,160.41c17.98,18.78,35.66,37.37,53.48,55.82,6.66,6.89,8.23,15.07,6.47,23.99-5.64,28.6-25.2,48.7-53.84,54.03-29,5.39-43.01-16-40-39.07,1.7-13.03,7.65-23.97,17.37-32.84,2.46-2.24,4.87-4.53,7.57-7.03-15.18-14.46-30.28-28.84-45.95-43.77-.12,2.06-.28,3.45-.28,4.84-.02,14.66,.02,29.33-.02,43.99-.02,8.97-3.46,12.46-12.31,12.53-7,.06-14,.1-20.99-.01-8.2-.13-11.84-3.82-11.84-12.04-.03-64.99-.03-129.97,0-194.96,0-8.88,5.35-13.22,13.95-11.48,8.55,1.72,16.57,4.55,23.79,9.78,5.24,3.8,7.51,8.31,7.48,14.75-.16,35.49-.08,70.98-.08,106.48v6.28c1.93-1.77,3.13-2.81,4.26-3.93,24.32-24.23,48.66-48.43,72.9-72.73,3.44-3.45,7.04-5.49,11.94-3.96,4.64,1.45,5.81,5.27,6.81,9.53,4.74,20.1,.2,37.48-14.4,52.27-8.89,9-17.49,18.29-26.32,27.55Z"/>
  <path d="M700.33,91.69h38.58c0,8.09,0,15.88,0,23.66s0,15.26,0,23.67c2.43-1.93,4.23-3.53,6.18-4.88,17.24-11.94,43-6.9,55.97,10.91,15.08,20.7,15.06,56.93,.38,77.83-14.45,20.55-45.2,23.75-62.31,6.06-.15,3.29-.26,5.93-.39,8.83h-38.42V91.69Zm38.18,92.3c.16,.02,.33,.04,.49,.06,0,2.16-.16,4.34,.03,6.48,.88,9.94,6.77,16.36,15.62,17.13,8.36,.73,15.11-4.79,17.47-14.49,1.85-7.61,1.68-15.2-1.48-22.46-3.14-7.22-8.78-10.41-16.74-9.84-6.59,.47-11.88,4.78-13.74,11.86-.96,3.65-1.12,7.51-1.65,11.27Z"/>
  <path d="M641.05,169.94c.09-7.37-1.85-10.16-7.63-11.58-8.1-1.99-13.22,.93-17.88,10.37-11.93-1.37-23.95-2.74-36.47-4.18,.17-1.41,.13-2.7,.49-3.85,5.21-16.34,16.78-26.03,32.86-30.51,13.09-3.65,26.4-3.31,39.45,.26,18.16,4.97,27.51,17.45,27.8,36.62,.17,11.66,.02,23.32,.04,34.97,.01,7.35,.09,7.42,7.52,8.76,0,8.18,.09,16.47-.12,24.76-.02,.97-1.55,2.57-2.58,2.74-14.16,2.42-27.92,2.66-39.52-8.71-10.25,9.03-22.62,11.32-35.78,10.31-11.43-.87-21.42-4.99-28.17-14.75-10.5-15.19-4.99-35.84,11.78-44.79,10.2-5.44,21.41-6.92,32.65-8.3,5.09-.63,10.17-1.38,15.54-2.12Zm-.39,23.18c-7.29,1.37-14.35,2.39-21.23,4.09-3.87,.96-5.95,4.01-5.57,8.32,.37,4.18,3,5.92,6.74,6.81,12.86,3.05,22.13-5.31,20.06-19.23Z"/>
  <path d="M400.26,127.9c32.9,.03,55.38,22.91,55.35,56.33-.03,33.29-22.77,56.42-55.48,56.43-32.9,.01-55.88-23.46-55.59-56.81,.28-33.54,22.63-55.98,55.72-55.95Zm17.73,56.54c-1.32-5.45-2.13-10.89-3.98-15.96-2.28-6.25-7.48-9.31-14.05-9.28-6.35,.03-11.31,3.08-13.85,8.96-4.56,10.58-4.57,21.41-.04,31.98,2.59,6.05,7.62,9.02,14.31,8.93,6.52-.09,11.34-3.19,13.63-9.11,1.88-4.87,2.66-10.17,3.98-15.52Z"/>
  <path d="M507.54,237.78h-38.32V91.67h38.32V237.78Z"/>
  <path d="M564.54,237.88h-38.16V91.66h38.16V237.88Z"/>
  <path class="cls-1" d="M738.51,183.99c.52-3.76,.68-7.62,1.65-11.27,1.87-7.07,7.16-11.39,13.74-11.86,7.96-.56,13.6,2.62,16.74,9.84,3.16,7.26,3.33,14.85,1.48,22.46-2.36,9.71-9.11,15.23-17.47,14.49-8.85-.77-14.74-7.19-15.62-17.13-.19-2.14-.03-4.32-.03-6.48-.16-.02-.33-.04-.49-.06Z"/>
  <path class="cls-1" d="M640.66,193.11c2.06,13.92-7.2,22.27-20.06,19.23-3.74-.89-6.37-2.63-6.74-6.81-.38-4.31,1.69-7.36,5.57-8.32,6.89-1.71,13.94-2.73,21.23-4.09Z"/>
  <path class="cls-1" d="M418,184.44c-1.33,5.35-2.1,10.65-3.98,15.52-2.28,5.91-7.11,9.01-13.63,9.11-6.69,.1-11.73-2.88-14.31-8.93-4.52-10.57-4.52-21.4,.04-31.98,2.54-5.89,7.5-8.94,13.85-8.96,6.56-.03,11.76,3.03,14.05,9.28,1.85,5.06,2.66,10.51,3.98,15.96Z"/>
</svg>