<?xml version="1.0" encoding="UTF-8"?>
<svg id="Calque_1" data-name="Calque 1" xmlns="http://www.w3.org/2000/svg" viewBox="0 0 85.25 338">
  <defs>
    <style>
      .cls-1 {
        fill: #818389;
        stroke: #818389;
        stroke-miterlimit: 10;
      }
    </style>
  </defs>
  <g id="Complete">
    <g id="F-More">
      <path id="Vertical" class="cls-1" d="M42.62,253.25c23.26,0,42.12,18.86,42.12,42.12s-18.86,42.12-42.12,42.12S.5,318.64,.5,295.37s18.86-42.12,42.12-42.12ZM.5,42.62c0,23.26,18.86,42.12,42.12,42.12s42.12-18.86,42.12-42.12S65.89,.5,42.62,.5,.5,19.36,.5,42.62Zm0,126.37c0,23.26,18.86,42.12,42.12,42.12s42.12-18.86,42.12-42.12-18.86-42.12-42.12-42.12S.5,145.73,.5,169Z"/>
    </g>
  </g>
</svg>