<?xml version="1.0" encoding="UTF-8"?>
<svg id="Calque_1" data-name="Calque 1" xmlns="http://www.w3.org/2000/svg" viewBox="0 0 616.67 683.33">
  <defs>
    <style>
      .cls-1 {
        fill: none;
        stroke: #e5e5e8;
        stroke-linecap: round;
        stroke-linejoin: round;
        stroke-width: 50px;
      }
    </style>
  </defs>
  <g id="Iconly_Curved_Setting" data-name="Iconly/Curved/Setting">
    <g id="Setting">
      <path id="Stroke_1" data-name="Stroke 1" class="cls-1" d="M308.33,258.33c46.03,0,83.33,37.3,83.33,83.33s-37.3,83.33-83.33,83.33-83.33-37.3-83.33-83.33,37.3-83.33,83.33-83.33Z"/>
      <path id="Stroke_3" data-name="Stroke 3" class="cls-1" d="M580.6,183.34h0c-22.78-39.74-73.23-53.34-112.65-30.39-34.29,19.92-77.15-5-77.15-44.88,0-45.87-36.94-83.07-82.48-83.07h0c-45.54,0-82.48,37.21-82.48,83.07,0,39.87-42.86,64.8-77.12,44.88-39.46-22.95-89.9-9.35-112.68,30.39-22.75,39.74-9.25,90.55,30.21,113.46,34.26,19.95,34.26,69.77,0,89.73-39.46,22.95-52.96,73.75-30.21,113.46,22.78,39.74,73.23,53.34,112.65,30.42h.03c34.26-19.95,77.12,4.97,77.12,44.84h0c0,45.87,36.94,83.07,82.48,83.07h0c45.54,0,82.48-37.21,82.48-83.07h0c0-39.87,42.86-64.8,77.15-44.84,39.42,22.92,89.87,9.32,112.65-30.42,22.78-39.71,9.25-90.52-30.17-113.46h-.03c-34.26-19.95-34.26-69.77,.03-89.73,39.42-22.92,52.96-73.72,30.17-113.46Z"/>
    </g>
  </g>
</svg>